<svg width="24" height="24" fill="none" xmlns="http://www.w3.org/2000/svg"><path d="M16.92 21.462c-.27 0-.668-.039-1.245-.129-.578-.09-1.258-.295-2.093-.642-.809-.334-1.746-.847-2.76-1.515-1.027-.667-2.118-1.591-3.274-2.76-.911-.898-1.681-1.771-2.285-2.593A18.579 18.579 0 013.8 11.525c-.372-.706-.655-1.36-.835-1.939a13.008 13.008 0 01-.385-1.502c-.064-.436-.09-.77-.077-1.027.013-.218.013-.333.013-.372v-.038c.026-.219.103-.437.205-.655a1.65 1.65 0 01.411-.552L5.7 2.872c.244-.244.526-.372.86-.372.244 0 .462.077.642.218.154.116.295.27.41.45 0 .012.014.012.014.025l2.08 3.941c.153.27.192.578.128.9a1.468 1.468 0 01-.424.782l-.937.937v.013c0 .013-.013.026-.013.026.051.231.154.5.308.796.154.295.385.667.693 1.091.308.437.758.937 1.335 1.502.565.578 1.079 1.04 1.515 1.36.437.322.81.553 1.091.707.347.18.527.231.617.257l.18.038s.012 0 .025-.013h.013l1.091-1.104.013-.012a1.547 1.547 0 011.04-.399c.257 0 .462.04.642.129.026.013.051.013.077.026l3.748 2.208c.36.218.565.513.642.86v.026c.052.398-.077.757-.36 1.052l-2.58 2.568c-.128.154-.32.282-.539.398-.218.102-.436.18-.654.205h-.052s-.038 0-.077.013c-.103-.038-.192-.038-.308-.038z" fill="#C4C4C4"/></svg>