<svg width="100" height="100" fill="none" xmlns="http://www.w3.org/2000/svg"><path d="M58.496 45.367c5.768 0 10.443-4.675 10.443-10.443 0-5.767-4.675-10.442-10.443-10.442-5.767 0-10.442 4.675-10.442 10.442 0 5.768 4.675 10.443 10.442 10.443z" stroke="#61C9C5" stroke-width="2.5" stroke-miterlimit="10" stroke-linecap="round"/><path d="M76.91 37.54c.04-.299.206-.568.46-.731l4.072-2.608a1 1 0 00.449-.998l-.637-4.032a1 1 0 00-.75-.815l-4.641-1.14a1.03 1.03 0 01-.675-.549 18.686 18.686 0 00-1.018-1.8 1.03 1.03 0 01-.12-.864l1.41-4.497a1 1 0 00-.299-1.055l-3.047-2.644a1 1 0 00-1.103-.139l-4.153 2.078c-.276.138-.6.14-.881.015a18.212 18.212 0 00-2.126-.791 1.032 1.032 0 01-.656-.585l-1.818-4.343a1 1 0 00-.922-.614h-4.018a1 1 0 00-.922.613l-1.86 4.43a1.03 1.03 0 01-.646.58c-.678.214-1.342.466-1.99.756a1.032 1.032 0 01-.886-.014l-4.209-2.116a1 1 0 00-1.101.135l-3.06 2.633a1 1 0 00-.303 1.054l1.459 4.712c.088.287.042.597-.117.851a18.448 18.448 0 00-.856 1.521 1.031 1.031 0 01-.664.54l-4.826 1.228a1 1 0 00-.743.819l-.614 4.042a1 1 0 00.456.997l4.183 2.632c.257.161.425.431.467.732.086.617.203 1.23.35 1.835a1.03 1.03 0 01-.16.847L37.38 44.43a1 1 0 00-.05 1.094l2.064 3.493a1 1 0 00.999.482l5.143-.714a1.03 1.03 0 01.822.253c.318.28.645.55.982.808.24.185.392.463.407.766l.251 5.27a1 1 0 00.647.888l3.761 1.416a1 1 0 001.082-.252l3.72-3.97a.95.95 0 01.73-.305c.211.008.419.02.636.02.316 0 .63-.01.94-.027.3-.016.592.096.798.313l3.601 3.791a1 1 0 001.084.245l3.747-1.438a1 1 0 00.641-.895l.2-5.215c.01-.3.158-.578.393-.765a18.53 18.53 0 001.09-.938c.225-.21.533-.314.839-.273l4.91.67a1 1 0 00.998-.485l2.053-3.499a1 1 0 00-.054-1.094l-3.016-4.149a1.03 1.03 0 01-.167-.832 18.4 18.4 0 00.278-1.546z" stroke="#61C9C5" stroke-width="2.5" stroke-miterlimit="10"/><path d="M75.043 76.769a5.442 5.442 0 100-10.884 5.442 5.442 0 000 10.884z" stroke="#61C9C5" stroke-width="2.5" stroke-miterlimit="10" stroke-linecap="round"/><path d="M84.605 72.917c.048-.299.212-.569.467-.732l1.665-1.066a1 1 0 00.449-.998l-.234-1.478a1 1 0 00-.75-.815l-1.885-.463a1.061 1.061 0 01-.68-.546 9.656 9.656 0 00-.303-.537 1.061 1.061 0 01-.117-.867l.572-1.824a1 1 0 00-.299-1.054l-1.109-.963a1 1 0 00-1.103-.139l-1.669.835a1.063 1.063 0 01-.883.02 9.463 9.463 0 00-.67-.25 1.063 1.063 0 01-.655-.59l-.734-1.754a1 1 0 00-.922-.613h-1.457a1 1 0 00-.922.612l-.757 1.803c-.118.28-.357.489-.644.587a9.106 9.106 0 00-.603.228c-.286.12-.61.12-.888-.02l-1.697-.853a1 1 0 00-1.102.135l-1.114.96a1 1 0 00-.304 1.053l.6 1.939a1.06 1.06 0 01-.111.854 9.79 9.79 0 00-.224.399 1.06 1.06 0 01-.669.537l-1.988.506a1 1 0 00-.743.819l-.225 1.483a1 1 0 00.456.996l1.72 1.082c.257.162.423.432.472.731.028.17.06.34.097.508.064.294.01.604-.166.848l-1.253 1.736a1 1 0 00-.05 1.094l.754 1.276a1 1 0 00.998.482l2.14-.297a1.06 1.06 0 01.825.248c.052.045.105.088.159.132.236.19.39.467.403.77l.106 2.202a1 1 0 00.646.888l1.366.515a1 1 0 001.082-.252L74.23 81.4a.957.957 0 01.73-.303 8.538 8.538 0 00.388-.002c.299-.009.591.101.798.318l1.5 1.58a1 1 0 001.084.245l1.36-.522a1 1 0 00.64-.895l.083-2.175c.011-.3.16-.577.39-.77.073-.06.146-.123.218-.187a1.06 1.06 0 01.844-.268l2.01.274a1 1 0 00.997-.485l.75-1.278a1 1 0 00-.054-1.094l-1.255-1.727a1.06 1.06 0 01-.173-.833c.024-.12.046-.24.065-.361z" stroke="#61C9C5" stroke-width="2.5" stroke-miterlimit="10"/><path d="M13.034 84.189l-2.087-1.88 15.762-17.205.602-2.967 4.04-.59 16.945-18.12-.104-1.983 9.29-7.02 1.391 1.253" fill="#fff"/><path d="M13.034 84.189l-2.087-1.88 15.762-17.205.602-2.967 4.04-.59 16.945-18.12-.104-1.983 9.29-7.02 1.391 1.253" stroke="#61C9C5" stroke-width="2.5" stroke-miterlimit="10"/><path d="M13.033 84.189l2.793 2.694 15.96-17.027 2.987-.82.26-4.084 16.846-18.21 2.082-.014 6.308-9.704-1.396-1.347" fill="#fff"/><path d="M13.033 84.189l2.793 2.694 15.96-17.027 2.987-.82.26-4.084 16.846-18.21 2.082-.014 6.308-9.704-1.396-1.347" stroke="#61C9C5" stroke-width="2.5" stroke-miterlimit="10"/></svg>