<svg width="100" height="100" fill="none" xmlns="http://www.w3.org/2000/svg"><path d="M77.445 45.248c.065-.296.253-.55.521-.69l5.746-3.008a1 1 0 00.534-.956l-.386-5.563a1 1 0 00-.676-.878l-6.078-2.068a1.024 1.024 0 01-.623-.606c-.347-.906-.75-1.79-1.204-2.645a1.024 1.024 0 01-.047-.871l2.416-5.855a1 1 0 00-.206-1.076l-3.837-3.966a1 1 0 00-1.087-.234l-5.812 2.299a1.026 1.026 0 01-.878-.064 23.25 23.25 0 00-2.859-1.358 1.025 1.025 0 01-.603-.639l-1.926-6.03a1 1 0 00-.865-.692l-5.478-.48a1 1 0 00-.972.531l-3.007 5.708a1.025 1.025 0 01-.694.52c-.974.21-1.933.481-2.873.813a1.025 1.025 0 01-.88-.09l-5.392-3.329a1 1 0 00-1.109.04l-4.482 3.222a1 1 0 00-.394 1.024l1.397 6.46c.064.294-.009.6-.191.838-.504.66-.973 1.345-1.406 2.055a1.024 1.024 0 01-.707.48l-6.586 1.075a1 1 0 00-.81.751l-1.318 5.429a1 1 0 00.367 1.032l5.278 4.003c.242.184.386.467.4.77.041.883.131 1.764.268 2.637.047.297-.035.601-.232.83l-4.502 5.21a1 1 0 00-.145 1.085l2.394 5.003a1 1 0 00.953.567l6.937-.352c.3-.015.59.106.795.324.432.459.882.9 1.348 1.322.225.204.352.495.34.798l-.28 7.044a1 1 0 00.567.941l4.958 2.38a1 1 0 001.1-.157l5.4-4.839a.955.955 0 01.753-.242c.31.038.61.083.926.11.447.04.89.063 1.33.075.3.01.582.146.768.38l4.355 5.471a1 1 0 001.058.339l5.28-1.514a1 1 0 00.717-.836l.873-6.922c.037-.298.208-.563.459-.727a23.665 23.665 0 001.706-1.228c.243-.191.559-.267.86-.2l6.484 1.469a1 1 0 001.036-.396l3.212-4.52a1 1 0 00.042-1.094l-3.534-5.879a1.024 1.024 0 01-.093-.843c.233-.72.43-1.45.594-2.188z" stroke="#61C9C5" stroke-width="2.5" stroke-miterlimit="10"/><path d="M41.724 47.645L12.857 77.131l5.584 5.726L47.189 53.25c2.02 1.218 4.395 1.828 7.008 1.828 7.96 0 14.374-6.58 14.374-14.743 0-1.706-.237-3.29-.712-4.752l-9.86 9.747-8.553-9.137 9.028-9.87c-1.307-.487-2.732-.609-4.277-.609-7.959 0-14.374 6.58-14.374 14.743.12 2.68.832 5.117 1.901 7.188z" fill="#fff" stroke="#61C9C5" stroke-width="2.5" stroke-miterlimit="10"/></svg>