<svg width="100" height="100" fill="none" xmlns="http://www.w3.org/2000/svg"><path d="M81.429 43.571l9.313 6.051m-84.693 0L49.019 23l12.065 7.706M81.168 43.55v43.593H15.857v-10.12" stroke="#61C9C5" stroke-width="2.5" stroke-miterlimit="10" stroke-linecap="round"/><path d="M2.857 65.347s5.138-9.808 22.03-7.473c10.742 1.479 15.958 5.293 25.844 1.946 5.76-1.946 7.706-4.048 10.43-7.862 1.713-2.413 2.881-8.719 3.27-10.743 1.557-8.251 5.527-12.066 13.078-15.568 9.42-4.36 7.24-15.57 7.24-15.57" stroke="#61C9C5" stroke-width="2.5" stroke-miterlimit="10" stroke-linecap="round"/><path d="M4.492 76.4s5.138-9.808 22.03-7.473c10.742 1.48 15.568 5.45 26.155 2.491 5.838-1.634 12.143-5.916 14.868-11.287.856-1.712 1.557-3.58 1.946-5.682 1.557-8.252-.778-15.102 12.222-18.76 10.586-2.959 9.03-13.545 9.03-13.545m-11.989-6.306L84.75 10l5.916 5.838" stroke="#61C9C5" stroke-width="2.5" stroke-miterlimit="10" stroke-linecap="round"/><path d="M84.748 27.904l6.072-5.838 5.916 5.838" stroke="#61C9C5" stroke-width="2.5" stroke-miterlimit="10" stroke-linecap="round"/></svg>