<svg width="70" height="70" fill="none" xmlns="http://www.w3.org/2000/svg"><path d="M45.007 37.203c1.91-2.653 3.025-5.997 3.025-9.711 0-2.282-.425-4.458-1.22-6.368-3.98-1.061-6.634-5.519-6.634-5.519-8.384 6.315-15.601 2.335-15.601 2.335-1.858 2.6-2.972 5.943-2.972 9.605 0 5.943 4.097 11.408 8.395 13.955" stroke="#61C9C5" stroke-width="2.5" stroke-miterlimit="10" stroke-linecap="round"/><path d="M17.638 23.928h-.896c-1.51 0-2.742 1.188-2.742 2.646v3.78C14 31.812 15.231 33 16.742 33h1.12V22.47C17.862 13.344 25.529 6 34.93 6S52 13.398 52 22.47V33" stroke="#61C9C5" stroke-width="2.5" stroke-miterlimit="10"/><path d="M51.989 24h.889c1.5 0 2.722 1.125 2.722 2.506v3.58c0 1.38-1.222 2.505-2.722 2.505h-.89v3.221c0 3.427-3 6.188-6.721 6.188H39.6m-2.447 2.791h-4.776a1.79 1.79 0 01-1.804-1.804v-1.38a1.79 1.79 0 011.804-1.804h4.776a1.79 1.79 0 011.805 1.805v1.38a1.79 1.79 0 01-1.805 1.803z" stroke="#61C9C5" stroke-width="2.5" stroke-miterlimit="10"/><path d="M12 64.744c0-9.074 6.05-16.397 13.479-16.397H43.52c7.431 0 13.48 7.323 13.48 16.397" stroke="#61C9C5" stroke-width="2.5" stroke-miterlimit="10" stroke-linecap="round"/></svg>