<svg width="32" height="32" viewBox="0 0 32 32" fill="none" xmlns="http://www.w3.org/2000/svg">
<path d="M16 29C8.8201 29 3 23.1799 3 16C3 8.8201 8.8201 3 16 3C23.1799 3 29 8.8201 29 16C29 23.1799 23.1799 29 16 29Z" fill="#765498"/>
<path d="M20.8579 15.2059C20.8739 13.2166 19.2326 11.3926 17.1992 11.1406L17.0659 11.1206C16.964 11.1004 16.8605 11.0888 16.7566 11.0859C16.3392 11.0859 16.2286 11.3873 16.1992 11.5673C16.1826 11.642 16.1811 11.7194 16.1949 11.7947C16.2086 11.87 16.2373 11.9419 16.2792 12.0059C16.4179 12.1993 16.6606 12.2326 16.8552 12.2619C16.9126 12.2699 16.9672 12.2766 17.0112 12.2886C18.8392 12.7086 19.4552 13.3713 19.7552 15.2419C19.7632 15.2886 19.7659 15.3446 19.7686 15.4046C19.7819 15.6273 19.8099 16.0926 20.2952 16.0926C20.3352 16.0926 20.3779 16.0899 20.4232 16.0819C20.8752 16.0113 20.8606 15.5859 20.8539 15.3819C20.8505 15.3327 20.8505 15.2832 20.8539 15.2339C20.8554 15.2251 20.8563 15.2162 20.8566 15.2073L20.8579 15.2059Z" fill="white"/>
<path d="M16.6405 10.4105C16.6938 10.4145 16.7472 10.4185 16.7885 10.4252C19.7885 10.9025 21.1698 12.3692 21.5525 15.4918C21.5592 15.5452 21.5592 15.6092 21.5605 15.6785C21.5645 15.9225 21.5725 16.4292 22.1005 16.4398H22.1165C22.189 16.4437 22.2615 16.432 22.3291 16.4055C22.3967 16.3791 22.4579 16.3385 22.5085 16.2865C22.6725 16.1092 22.6618 15.8465 22.6525 15.6332C22.6498 15.5825 22.6472 15.5332 22.6485 15.4905C22.6858 12.2972 20.0085 9.40116 16.9178 9.29449L16.8805 9.29582C16.8686 9.29758 16.8565 9.29847 16.8445 9.29849C16.8138 9.29849 16.7752 9.29582 16.7352 9.29316C16.682 9.28829 16.6286 9.28562 16.5752 9.28516C16.0832 9.28516 15.9898 9.64516 15.9778 9.86116C15.9512 10.3585 16.4165 10.3945 16.6405 10.4105ZM21.4072 19.5265C21.343 19.4762 21.2794 19.4251 21.2165 19.3732C20.8885 19.1012 20.5392 18.8505 20.2032 18.6078C20.1329 18.5573 20.0626 18.5066 19.9925 18.4558C19.5605 18.1438 19.1725 17.9905 18.8058 17.9905C18.3125 17.9905 17.8818 18.2732 17.5258 18.8292C17.3685 19.0745 17.1765 19.1945 16.9418 19.1945C16.778 19.1886 16.6174 19.1472 16.4712 19.0732C15.0778 18.4198 14.0818 17.4198 13.5125 16.0998C13.2378 15.4598 13.3258 15.0438 13.8112 14.7038C14.0858 14.5118 14.5978 14.1532 14.5618 13.4665C14.5218 12.6865 12.8538 10.3398 12.1512 10.0732C11.8514 9.96003 11.5209 9.95909 11.2205 10.0705C10.4138 10.3505 9.83383 10.8438 9.5445 11.4932C9.2645 12.1225 9.27783 12.8598 9.58183 13.6278C10.4578 15.8492 11.6885 17.7852 13.2432 19.3825C14.7632 20.9465 16.6325 22.2265 18.7978 23.1892C18.9925 23.2758 19.1978 23.3225 19.3472 23.3572L19.4738 23.3892C19.4912 23.3941 19.5091 23.3968 19.5272 23.3972H19.5445C20.5632 23.3972 21.7858 22.4372 22.1618 21.3412C22.4912 20.3812 21.8898 19.9078 21.4072 19.5278V19.5265ZM17.0912 12.9478C16.9178 12.9518 16.5538 12.9612 16.4258 13.3425C16.3672 13.5212 16.3738 13.6758 16.4472 13.8025C16.5552 13.9892 16.7632 14.0465 16.9512 14.0772C17.6338 14.1905 17.9858 14.5812 18.0552 15.3038C18.0885 15.6425 18.3085 15.8772 18.5912 15.8772C18.6125 15.8776 18.6339 15.8767 18.6552 15.8745C18.9952 15.8318 19.1592 15.5745 19.1445 15.1078C19.1498 14.6198 18.9032 14.0678 18.4832 13.6278C18.0618 13.1852 17.5538 12.9358 17.0912 12.9478Z" fill="white"/>
</svg>
