<svg width="31" height="30" viewBox="0 0 31 30" fill="none" xmlns="http://www.w3.org/2000/svg">
<path d="M7.95713 25.7836L8.44928 26.0269C10.5002 27.2431 12.797 27.8107 15.0939 27.8107C22.3127 27.8107 28.2189 21.9728 28.2189 14.8377C28.2189 11.4323 26.8243 8.108 24.3635 5.67554C21.9025 3.24307 18.6212 1.86475 15.0939 1.86475C7.87517 1.86475 1.96881 7.70257 2.05089 14.9188C2.05089 17.3512 2.78917 19.7026 4.0196 21.7296L4.3477 22.2161L3.03531 26.9999L7.95713 25.7836Z" fill="#01D86F"/>
<path d="M25.7578 4.37837C22.9688 1.54059 19.1133 0 15.1758 0C6.80869 0 0.0820834 6.72971 0.164049 14.9189C0.164049 17.5135 0.902329 20.0271 2.13287 22.2973L0 30L7.95703 27.973C10.1719 29.1893 12.6327 29.7568 15.0938 29.7568C23.3789 29.7568 30.1055 23.027 30.1055 14.838C30.1055 10.8649 28.5469 7.13514 25.758 4.37837H25.7578ZM15.1758 27.2434C12.9609 27.2434 10.7461 26.6759 8.85936 25.5407L8.36721 25.2974L3.60943 26.5136L4.83986 21.8921L4.51176 21.4055C0.902329 15.6488 2.62502 8.02701 8.53126 4.45939C14.4375 0.891878 22.0664 2.59462 25.6759 8.43244C29.2852 14.2703 27.5625 21.8108 21.6564 25.3785C19.7695 26.5946 17.4727 27.2432 15.1758 27.2432V27.2434ZM22.3945 18.2434L21.4922 17.838C21.4922 17.838 20.1798 17.2704 19.3594 16.865C19.2774 16.865 19.1954 16.7839 19.1133 16.7839C18.8672 16.7839 18.7031 16.865 18.5391 16.9461C18.5391 16.9461 18.4571 17.0272 17.3087 18.3245C17.2266 18.4866 17.0625 18.5677 16.8985 18.5677H16.8164C16.7344 18.5677 16.5704 18.4866 16.4883 18.4056L16.0781 18.2434C15.1758 17.838 14.3555 17.3514 13.6992 16.7029C13.5352 16.5407 13.289 16.3786 13.125 16.2164C12.5508 15.6488 11.9765 15.0001 11.5665 14.2704L11.4844 14.1082C11.4024 14.0271 11.4024 13.9461 11.3203 13.7839C11.3203 13.6218 11.3203 13.4596 11.4024 13.3785C11.4024 13.3785 11.7305 12.9731 11.9765 12.7299C12.1407 12.5676 12.2227 12.3245 12.3867 12.1623C12.5508 11.9191 12.6328 11.5948 12.5508 11.3515C12.4688 10.946 11.4844 8.75686 11.2384 8.27041C11.0742 8.02713 10.9103 7.94611 10.6641 7.86498H9.76181C9.59764 7.86498 9.43371 7.94611 9.26954 7.94611L9.18746 8.02713C9.02341 8.10826 8.85936 8.27041 8.69531 8.35143C8.53126 8.51369 8.44918 8.67572 8.28513 8.83799C7.7109 9.56772 7.3828 10.4596 7.3828 11.3515C7.3828 12.0001 7.54685 12.6488 7.79298 13.2164L7.87507 13.4596C8.61335 15.0001 9.59764 16.3786 10.9103 17.5947L11.2384 17.919C11.4844 18.1623 11.7305 18.3245 11.8946 18.5676C13.6173 20.0272 15.586 21.0812 17.8008 21.6488C18.0469 21.7298 18.375 21.7298 18.6212 21.811H19.4414C19.8516 21.811 20.3437 21.6488 20.672 21.4867C20.918 21.3245 21.082 21.3245 21.2461 21.1624L21.4102 21.0001C21.5743 20.8379 21.7383 20.7569 21.9024 20.5948C22.0664 20.4326 22.2305 20.2705 22.3126 20.1082C22.4766 19.7839 22.5586 19.3785 22.6407 18.9732V18.4056C22.6407 18.4056 22.5586 18.3245 22.3945 18.2434Z" fill="white"/>
</svg>
