<svg width="100" height="100" fill="none" xmlns="http://www.w3.org/2000/svg"><path d="M84.913 18.572H15.286a1 1 0 00-1 1v25.954a1 1 0 001 1h69.627a1 1 0 001-1V19.571a1 1 0 00-1-1zm-5.092 30v-1.25H20.18v5.035c0 .967.783 1.75 1.75 1.75h56.14a1.75 1.75 0 001.75-1.75v-3.785z" stroke="#61C9C5" stroke-width="2.5" stroke-miterlimit="10"/><path d="M8.571 79.4s11.71-2.743 16.984-19.41m12.553 1.793s-2.32 16.561-8.122 23.524m20.57-23.524v28.165M92.857 79.4s-11.71-2.743-16.984-19.41M63.32 61.783s2.321 16.561 8.123 23.524" stroke="#61C9C5" stroke-width="2.5" stroke-miterlimit="10" stroke-linecap="round"/><rect x="47.143" y="24.286" width="15.714" height="4.286" rx=".5" fill="#61C9C5"/><rect x="67.143" y="24.286" width="4.286" height="4.286" rx=".5" fill="#61C9C5"/><rect x="75.714" y="24.286" width="4.286" height="4.286" rx=".5" fill="#61C9C5"/></svg>