<svg width="70" height="70" viewBox="0 0 70 70" fill="none" xmlns="http://www.w3.org/2000/svg">
<path d="M35 7.10938C29.4837 7.10937 24.0914 8.74513 19.5048 11.8098C14.9182 14.8745 11.3434 19.2304 9.2324 24.3267C7.12143 29.4231 6.5691 35.0309 7.64527 40.4412C8.72143 45.8514 11.3778 50.8211 15.2783 54.7217C19.1789 58.6222 24.1485 61.2785 29.5588 62.3547C34.969 63.4309 40.5769 62.8786 45.6733 60.7676C50.7696 58.6566 55.1255 55.0818 58.1902 50.4952C61.2549 45.9086 62.8906 40.5162 62.8906 35C62.8823 27.6055 59.9411 20.5162 54.7124 15.2875C49.4837 10.0588 42.3945 7.1177 35 7.10938V7.10938ZM35 59.6094C30.1327 59.6094 25.3747 58.1661 21.3277 55.4619C17.2808 52.7578 14.1265 48.9144 12.2639 44.4176C10.4013 39.9208 9.91391 34.9727 10.8635 30.1989C11.813 25.4252 14.1568 21.0402 17.5985 17.5985C21.0402 14.1569 25.4252 11.813 30.1989 10.8635C34.9727 9.91393 39.9208 10.4013 44.4176 12.2639C48.9144 14.1265 52.7578 17.2808 55.4619 21.3278C58.166 25.3748 59.6094 30.1327 59.6094 35C59.602 41.5245 57.0068 47.7797 52.3933 52.3933C47.7797 57.0069 41.5245 59.602 35 59.6094V59.6094ZM45.3906 40.4688C45.3885 42.3536 44.6388 44.1607 43.306 45.4935C41.9732 46.8263 40.1661 47.576 38.2812 47.5781H36.6406V50.3125C36.6406 50.7476 36.4678 51.1649 36.1601 51.4726C35.8524 51.7803 35.4351 51.9531 35 51.9531C34.5649 51.9531 34.1476 51.7803 33.8399 51.4726C33.5322 51.1649 33.3594 50.7476 33.3594 50.3125V47.5781H28.4375C28.0024 47.5781 27.5851 47.4053 27.2774 47.0976C26.9697 46.7899 26.7969 46.3726 26.7969 45.9375C26.7969 45.5024 26.9697 45.0851 27.2774 44.7774C27.5851 44.4697 28.0024 44.2969 28.4375 44.2969H38.2812C39.2965 44.2969 40.2702 43.8936 40.9881 43.1756C41.706 42.4577 42.1094 41.484 42.1094 40.4688C42.1094 39.4535 41.706 38.4798 40.9881 37.7619C40.2702 37.0439 39.2965 36.6406 38.2812 36.6406H31.7187C29.8332 36.6406 28.0249 35.8916 26.6916 34.5583C25.3584 33.2251 24.6094 31.4168 24.6094 29.5312C24.6094 27.6457 25.3584 25.8374 26.6916 24.5042C28.0249 23.1709 29.8332 22.4219 31.7187 22.4219H33.3594V19.6875C33.3594 19.2524 33.5322 18.8351 33.8399 18.5274C34.1476 18.2197 34.5649 18.0469 35 18.0469C35.4351 18.0469 35.8524 18.2197 36.1601 18.5274C36.4678 18.8351 36.6406 19.2524 36.6406 19.6875V22.4219H41.5625C41.9976 22.4219 42.4149 22.5947 42.7226 22.9024C43.0303 23.2101 43.2031 23.6274 43.2031 24.0625C43.2031 24.4976 43.0303 24.9149 42.7226 25.2226C42.4149 25.5303 41.9976 25.7031 41.5625 25.7031H31.7187C30.7035 25.7031 29.7298 26.1064 29.0118 26.8244C28.2939 27.5423 27.8906 28.516 27.8906 29.5312C27.8906 30.5465 28.2939 31.5202 29.0118 32.2381C29.7298 32.9561 30.7035 33.3594 31.7187 33.3594H38.2812C40.1661 33.3615 41.9732 34.1112 43.306 35.444C44.6388 36.7768 45.3885 38.5839 45.3906 40.4688V40.4688Z" fill="#67D6C7"/>
</svg>
