<svg width="70" height="70" viewBox="0 0 70 70" fill="none" xmlns="http://www.w3.org/2000/svg">
<path d="M45.0072 37.2029C46.9175 34.5496 48.0319 31.2064 48.0319 27.4918C48.0319 25.2099 47.6074 23.0342 46.8114 21.1238C42.8315 20.0625 40.1782 15.605 40.1782 15.605C31.7937 21.9198 24.5767 17.9399 24.5767 17.9399C22.7194 20.5401 21.605 23.8833 21.605 27.5448C21.605 33.4882 25.7017 38.9529 30.0001 41.5001" stroke="#61C9C5" stroke-width="2.5" stroke-miterlimit="10" stroke-linecap="round"/>
<path d="M17.6377 23.928H16.7423C15.2312 23.928 14 25.116 14 26.574V30.354C14 31.812 15.2312 33 16.7423 33H17.6377H17.8616V22.47C17.8616 13.344 25.5287 6 34.9308 6C44.3329 6 52 13.398 52 22.47V33" stroke="#61C9C5" stroke-width="2.5" stroke-miterlimit="10"/>
<path d="M51.9889 24H52.8778C54.3778 24 55.6 25.125 55.6 26.5057V30.0852C55.6 31.4659 54.3778 32.5909 52.8778 32.5909H51.9889V35.8125C51.9889 39.2386 48.9889 42 45.2667 42H39.6" stroke="#61C9C5" stroke-width="2.5" stroke-miterlimit="10"/>
<path d="M37.1533 44.7914H32.3774C31.3691 44.7914 30.5731 43.9954 30.5731 42.9872V41.6075C30.5731 40.5992 31.3691 39.8032 32.3774 39.8032H37.1533C38.1616 39.8032 38.9576 40.5992 38.9576 41.6075V42.9872C38.9576 43.9954 38.1616 44.7914 37.1533 44.7914Z" stroke="#61C9C5" stroke-width="2.5" stroke-miterlimit="10"/>
<path d="M12 64.7441C12 55.6698 18.0495 48.3467 25.4788 48.3467H43.5212C50.9505 48.3467 57 55.6698 57 64.7441" stroke="#61C9C5" stroke-width="2.5" stroke-miterlimit="10" stroke-linecap="round"/>
</svg>
