<svg width="200" height="40" fill="none" xmlns="http://www.w3.org/2000/svg"><g clip-path="url(#clip0)"><path d="M66.3 23.517H55.547l-2.19 4.905a.458.458 0 01-.393.262h-1.139a.433.433 0 01-.394-.635l8.43-18.414a.457.457 0 01.394-.263H61.7c.175 0 .329.11.395.263l8.714 19.05H68.95a.433.433 0 01-.394-.263L66.3 23.517zm-.745-1.642l-4.226-9.46a.444.444 0 00-.81 0l-4.226 9.46h9.262zm16.97-6.854a7.232 7.232 0 012.758 2.628c.68 1.116 1.008 2.386 1.008 3.788 0 1.401-.329 2.671-1.007 3.788-.68 1.138-1.599 2.014-2.76 2.671-1.16.635-2.474.963-3.94.963-1.205 0-2.322-.197-3.329-.569a7.079 7.079 0 01-2.233-1.313c-.197-.176-.197-.46-.022-.657l.547-.548a.437.437 0 01.591-.022c1.183.986 2.628 1.467 4.358 1.467 1.05 0 1.992-.219 2.846-.657a5.674 5.674 0 002.102-1.839c.548-.788.854-1.664.942-2.65h-7.314a.44.44 0 01-.438-.437v-.591a.44.44 0 01.438-.438h7.292c-.197-1.445-.854-2.628-1.927-3.547-1.095-.92-2.409-1.358-3.941-1.358-1.73 0-3.175.482-4.358 1.467a.437.437 0 01-.59-.022l-.526-.525a.457.457 0 01.022-.657 7.686 7.686 0 012.211-1.314 9.57 9.57 0 013.328-.57c1.467-.021 2.781.307 3.942.942zm18.392-.043a6.572 6.572 0 012.584 2.605c.635 1.117.942 2.409.942 3.832 0 1.445-.307 2.737-.942 3.854s-1.489 1.992-2.584 2.606c-1.094.613-2.32.92-3.7.92-1.182 0-2.233-.242-3.197-.724a5.895 5.895 0 01-2.32-2.145v7.642a.44.44 0 01-.439.437h-1.073a.44.44 0 01-.438-.438V14.585a.44.44 0 01.438-.438h.986a.44.44 0 01.438.438v2.43a6.078 6.078 0 012.32-2.211c.964-.526 2.059-.767 3.263-.767 1.38.022 2.628.329 3.722.942zm-1.073 11.408c.833-.46 1.467-1.14 1.949-1.993.46-.854.701-1.84.701-2.956 0-1.117-.241-2.08-.701-2.934a5.015 5.015 0 00-1.949-1.993 5.407 5.407 0 00-2.758-.722c-1.03 0-1.95.24-2.781.722a5.111 5.111 0 00-1.927 1.993c-.46.854-.7 1.84-.7 2.934 0 1.095.24 2.08.7 2.956a4.968 4.968 0 001.927 1.992c.81.46 1.751.701 2.78.701 1.008 0 1.927-.24 2.76-.7zm11.474 1.488a6.93 6.93 0 01-2.649-2.627c-.635-1.117-.964-2.387-.964-3.81 0-1.424.329-2.694.964-3.81a6.93 6.93 0 012.649-2.628c1.117-.635 2.387-.941 3.788-.941 1.401 0 2.649.306 3.788.941 1.117.635 1.993 1.49 2.628 2.628.635 1.116.941 2.386.941 3.81 0 1.423-.306 2.693-.941 3.81a6.883 6.883 0 01-2.628 2.627c-1.117.635-2.387.942-3.788.942-1.401 0-2.671-.307-3.788-.942zm6.547-1.489a4.971 4.971 0 001.927-1.992c.46-.854.679-1.84.679-2.956 0-1.117-.241-2.08-.679-2.956-.46-.854-1.095-1.533-1.927-1.993-.81-.46-1.752-.7-2.781-.7a5.64 5.64 0 00-2.781.7 4.971 4.971 0 00-1.927 1.993c-.459.854-.7 1.839-.7 2.956 0 1.116.241 2.08.7 2.956a4.971 4.971 0 001.927 1.992c.81.46 1.752.7 2.781.7 1.051 0 1.971-.24 2.781-.7zM146.089 9.81v18.415a.44.44 0 01-.438.438h-1.073a.44.44 0 01-.438-.438v-15l-7.598 12.985h-.963l-7.576-12.919v14.934a.44.44 0 01-.438.438h-1.073a.44.44 0 01-.438-.438V9.81a.44.44 0 01.438-.438h.985c.154 0 .307.088.373.219l8.254 14.101 8.168-14.101a.46.46 0 01.394-.219h.985a.44.44 0 01.438.438zm5.167 4.358h1.073a.44.44 0 01.438.437v11.08l9.547-11.364a.436.436 0 01.35-.153h1.095a.44.44 0 01.438.437v13.62a.44.44 0 01-.438.438h-1.073a.44.44 0 01-.438-.438v-11.08l-9.524 11.364a.437.437 0 01-.351.154h-1.117a.439.439 0 01-.437-.438v-13.62a.44.44 0 01.437-.438zm28.619.81a6.572 6.572 0 012.584 2.605c.635 1.117.941 2.409.941 3.832 0 1.445-.306 2.737-.941 3.854s-1.489 1.992-2.584 2.606c-1.095.613-2.321.92-3.701.92-1.182 0-2.233-.242-3.196-.724a5.89 5.89 0 01-2.321-2.145v7.642a.44.44 0 01-.438.437h-1.073a.44.44 0 01-.438-.438V14.585a.44.44 0 01.438-.438h.985a.44.44 0 01.438.438v2.43a6.08 6.08 0 012.321-2.211c.963-.526 2.058-.767 3.263-.767 1.379.022 2.627.329 3.722.942zm-1.073 11.408c.832-.46 1.467-1.14 1.949-1.993.46-.854.7-1.84.7-2.956 0-1.117-.24-2.08-.7-2.934a5.02 5.02 0 00-1.949-1.993 5.408 5.408 0 00-2.759-.722c-1.029 0-1.949.24-2.781.722a5.114 5.114 0 00-1.927 1.993c-.459.854-.7 1.84-.7 2.934 0 1.095.241 2.08.7 2.956a4.971 4.971 0 001.927 1.992c.81.46 1.752.701 2.781.701 1.007 0 1.927-.24 2.759-.7z" fill="#304368" stroke="#304368" stroke-miterlimit="10"/><path d="M18.885 23.734a4.56 4.56 0 100-9.12 4.56 4.56 0 000 9.12z" fill="#3F74FD"/><path d="M27.639.374a20.6 20.6 0 019.924 9.608c5.096 10.168.976 22.677-9.168 27.846C18.032 43.095 5.4 38.852.305 28.44l-.269-.78c-.146-.39.17-.829.585-.829h2.56a.62.62 0 01.562.341c4.34 8.388 14.703 11.73 23.189 7.316 8.046-4.194 11.46-14.07 7.705-22.312a17.323 17.323 0 00-7.876-8.217.595.595 0 01-.341-.561V.813c0-.414.414-.707.804-.585l.415.146z" fill="url(#paint0_linear)"/><path d="M26.834 9.543l-1.975 2.39C20.884 8.64 14.984 9.2 11.716 13.2l-2.39-1.975a.48.48 0 01-.048-.707c4.486-5.023 12.119-5.755 17.483-1.683.22.196.244.512.073.708z" fill="url(#paint1_linear)"/><path d="M15.934 31.732c-6.559-1.56-10.826-7.925-9.777-14.581a.517.517 0 01.585-.415l3.048.61a9.333 9.333 0 007.364 10.972l-.61 3.048a.502.502 0 01-.61.366z" fill="#2D72EA"/><path d="M23.494 31.245c6.315-2.366 9.753-9.218 7.9-15.704-.073-.268-.366-.414-.634-.341l-2.95.975c1.609 4.901-1.025 10.193-5.926 11.802l.976 2.95c.097.269.39.415.634.318z" fill="#38F4C7"/></g><defs><linearGradient id="paint0_linear" x1=".009" y1="20.127" x2="39.752" y2="20.127" gradientUnits="userSpaceOnUse"><stop stop-color="#3F4AFC"/><stop offset=".094" stop-color="#3B55F7"/><stop offset=".259" stop-color="#3272E9"/><stop offset=".474" stop-color="#22A1D3"/><stop offset=".674" stop-color="#11D3BB"/><stop offset=".775" stop-color="#18D9BD"/><stop offset=".918" stop-color="#2AE8C3"/><stop offset="1" stop-color="#38F4C7"/></linearGradient><linearGradient id="paint1_linear" x1="13.046" y1="5.933" x2="23.024" y2="14.167" gradientUnits="userSpaceOnUse"><stop offset=".457" stop-color="#11D3BB"/><stop offset=".625" stop-color="#18D9BD"/><stop offset=".864" stop-color="#2AE8C3"/><stop offset="1" stop-color="#38F4C7"/></linearGradient><clipPath id="clip0"><path fill="#fff" d="M0 0h200v40H0z"/></clipPath></defs></svg>