<svg width="31" height="30" fill="none" xmlns="http://www.w3.org/2000/svg"><path d="M7.957 25.784l.492.243c2.051 1.216 4.348 1.784 6.645 1.784 7.219 0 13.125-5.838 13.125-12.973 0-3.406-1.395-6.73-3.856-9.162a13.108 13.108 0 00-9.27-3.811c-7.218 0-13.124 5.838-13.042 13.054 0 2.432.738 4.784 1.969 6.81l.328.487L3.035 27l4.922-1.216z" fill="#01D86F"/><path d="M25.758 4.378C22.968 1.541 19.113 0 15.176 0 6.809 0 .082 6.73.164 14.919c0 2.595.738 5.108 1.969 7.378L0 30l7.957-2.027c2.215 1.216 4.676 1.784 7.137 1.784 8.285 0 15.011-6.73 15.011-14.919 0-3.973-1.558-7.703-4.347-10.46zM15.176 27.243c-2.215 0-4.43-.567-6.317-1.702l-.492-.244-4.758 1.217 1.23-4.622-.327-.486C.902 15.649 2.625 8.027 8.532 4.459 14.436.892 22.065 2.595 25.675 8.432c3.61 5.838 1.887 13.379-4.02 16.947-1.886 1.216-4.183 1.864-6.48 1.864zm7.219-9l-.903-.405s-1.312-.568-2.133-.973c-.082 0-.164-.081-.246-.081-.246 0-.41.081-.574.162 0 0-.082.081-1.23 1.378a.452.452 0 01-.41.244h-.083c-.082 0-.246-.081-.328-.162l-.41-.163c-.902-.405-1.723-.892-2.379-1.54-.164-.162-.41-.324-.574-.487-.574-.567-1.149-1.216-1.559-1.946l-.082-.162c-.082-.08-.082-.162-.164-.324 0-.162 0-.324.082-.405 0 0 .329-.406.575-.65.164-.161.246-.404.41-.567.164-.243.246-.567.164-.81-.082-.406-1.067-2.595-1.313-3.082-.164-.243-.328-.324-.574-.405h-.902c-.164 0-.328.081-.492.081l-.083.081c-.164.081-.328.243-.492.324-.164.163-.246.325-.41.487-.574.73-.902 1.622-.902 2.514 0 .648.164 1.297.41 1.864l.082.244a13.512 13.512 0 003.035 4.135l.328.324c.246.243.492.405.657.649 1.722 1.46 3.691 2.513 5.906 3.08.246.082.574.082.82.163h.82c.41 0 .903-.162 1.231-.324.246-.162.41-.162.574-.325L21.41 21c.164-.162.328-.243.492-.405.164-.162.328-.325.41-.487.165-.324.247-.73.329-1.135v-.567s-.082-.081-.246-.163z" fill="#fff"/></svg>