<svg width="32" height="32" fill="none" xmlns="http://www.w3.org/2000/svg"><path d="M16 29C8.82 29 3 23.18 3 16S8.82 3 16 3s13 5.82 13 13-5.82 13-13 13z" fill="#765498"/><path d="M20.858 15.206c.016-1.99-1.625-3.813-3.659-4.065l-.133-.02a1.857 1.857 0 00-.31-.035c-.417 0-.527.301-.557.481a.573.573 0 00.08.439c.139.193.382.227.576.256.058.008.112.015.156.027 1.828.42 2.444 1.082 2.744 2.953.008.047.01.103.014.163.013.222.04.688.526.688a.73.73 0 00.128-.011c.452-.07.438-.496.43-.7a1.075 1.075 0 01.004-.175v-.001z" fill="#fff"/><path d="M16.64 10.41c.054.005.107.008.148.015 3 .477 4.382 1.944 4.764 5.067.007.053.007.117.009.186.003.244.012.751.54.762h.015a.508.508 0 00.393-.154c.163-.177.153-.44.143-.653-.002-.05-.005-.1-.004-.142.038-3.194-2.64-6.09-5.73-6.197l-.037.002a.25.25 0 01-.037.002c-.03 0-.069-.002-.109-.005a1.939 1.939 0 00-.16-.008c-.492 0-.585.36-.597.576-.027.497.438.534.662.55zm4.767 9.116a9.68 9.68 0 01-.19-.153c-.328-.272-.678-.523-1.014-.765l-.21-.152c-.432-.312-.82-.465-1.187-.465-.494 0-.924.282-1.28.838-.157.245-.35.366-.584.366a1.132 1.132 0 01-.47-.122c-1.394-.653-2.39-1.653-2.96-2.973-.274-.64-.186-1.056.3-1.396.274-.192.786-.55.75-1.238-.04-.78-1.708-3.126-2.41-3.393a1.332 1.332 0 00-.931-.003c-.807.28-1.387.774-1.677 1.423-.28.63-.266 1.367.038 2.135.876 2.221 2.106 4.157 3.661 5.755 1.52 1.564 3.39 2.844 5.555 3.806.195.087.4.134.55.168l.126.032a.214.214 0 00.053.008h.017c1.02 0 2.242-.96 2.618-2.056.33-.96-.272-1.433-.755-1.813v-.002zm-4.316-6.578c-.173.004-.537.013-.665.394-.059.18-.052.334.021.46.108.187.316.245.504.275.683.114 1.035.504 1.104 1.227.034.338.253.573.536.573.021 0 .043 0 .064-.003.34-.042.504-.3.49-.766.005-.488-.242-1.04-.662-1.48-.421-.443-.93-.692-1.392-.68z" fill="#fff"/></svg>