<svg width="24" height="24" viewBox="0 0 24 24" fill="none" xmlns="http://www.w3.org/2000/svg">
<path d="M16.9201 21.4615C16.6505 21.4615 16.2525 21.423 15.6748 21.3331C15.0971 21.2432 14.4167 21.0378 13.5823 20.6912C12.7735 20.3574 11.8363 19.8439 10.8221 19.1764C9.7951 18.5088 8.70389 17.5845 7.54848 16.4162C6.63699 15.5176 5.86672 14.6446 5.26334 13.823C4.65997 13.0014 4.17213 12.2311 3.79983 11.525C3.42753 10.8189 3.1451 10.1642 2.96537 9.58649C2.78564 9.00878 2.65726 8.50811 2.58024 8.08446C2.51605 7.64797 2.49037 7.31419 2.50321 7.05743C2.51605 6.83919 2.51605 6.72365 2.51605 6.68513C2.51605 6.6723 2.51605 6.65946 2.51605 6.64662C2.54172 6.42838 2.61875 6.21013 2.72145 5.99189C2.82416 5.77365 2.96537 5.58108 3.13226 5.43986L5.69983 2.8723C5.94375 2.62838 6.22618 2.5 6.55997 2.5C6.80388 2.5 7.02213 2.57703 7.20186 2.71824C7.35591 2.83378 7.49713 2.98784 7.61267 3.16757C7.61267 3.18041 7.62551 3.18041 7.62551 3.19324L9.70524 7.13446C9.85929 7.40405 9.8978 7.71216 9.83361 8.03311C9.76942 8.34122 9.62821 8.61081 9.40997 8.81622L8.4728 9.75338V9.76622C8.4728 9.77905 8.45997 9.79189 8.45997 9.79189C8.51132 10.023 8.61402 10.2926 8.76807 10.5878C8.92213 10.8831 9.15321 11.2554 9.46132 11.6791C9.76943 12.1155 10.2188 12.6162 10.7965 13.1811C11.3613 13.7588 11.8748 14.2209 12.3113 14.5419C12.7478 14.8628 13.1201 15.0939 13.4025 15.248C13.7492 15.4277 13.9289 15.4791 14.0188 15.5047L14.1985 15.5432C14.1985 15.5432 14.2113 15.5432 14.2242 15.5304H14.237L15.3282 14.4264L15.341 14.4135C15.6363 14.1568 15.9829 14.0155 16.3809 14.0155C16.6377 14.0155 16.8431 14.0541 17.0228 14.1439C17.0485 14.1568 17.0742 14.1568 17.0998 14.1696L20.8485 16.3777C21.2079 16.5959 21.4133 16.8912 21.4904 17.2378C21.4904 17.2507 21.4904 17.2507 21.4904 17.2635C21.5417 17.6615 21.4133 18.0209 21.1309 18.3162L18.5505 20.8838C18.4221 21.0378 18.2296 21.1662 18.0113 21.2818C17.7931 21.3845 17.5748 21.4615 17.3566 21.4872C17.3438 21.4872 17.3309 21.4872 17.3052 21.4872C17.3052 21.4872 17.2667 21.4872 17.2282 21.5C17.1255 21.4615 17.0356 21.4615 16.9201 21.4615Z" fill="#C4C4C4"/>
</svg>
