<svg width="24" height="24" viewBox="0 0 24 24" fill="none" xmlns="http://www.w3.org/2000/svg">
<path fill-rule="evenodd" clip-rule="evenodd" d="M13.2372 22.8804L12.3718 23.8556V23.8569C11.1493 22.5056 9.97641 21.1104 8.85531 19.6739L8.2066 18.8181C5.49791 15.1686 4.14288 12.272 4.14288 10.1311C4.14288 5.56132 7.82669 1.85693 12.3718 1.85693C16.9169 1.85693 20.6007 5.56132 20.6007 10.1311C20.6007 12.272 19.2457 15.1686 16.537 18.8181L15.8883 19.6739C15.1024 20.6888 14.2192 21.7558 13.2372 22.8804ZM15.8005 10.0858C15.8005 11.9795 14.2654 13.5146 12.3718 13.5146C10.4782 13.5146 8.9431 11.9795 8.9431 10.0858C8.9431 8.19222 10.4782 6.65713 12.3718 6.65713C14.2654 6.65713 15.8005 8.19222 15.8005 10.0858Z" fill="#C4C4C4"/>
</svg>
