<svg width="200" height="40" viewBox="0 0 200 40" fill="none" xmlns="http://www.w3.org/2000/svg">
<g clip-path="url(#clip0)">
<path d="M66.2995 23.517H55.5485L53.3589 28.4217C53.2932 28.575 53.118 28.6844 52.9648 28.6844H51.8262C51.4977 28.6844 51.2788 28.356 51.432 28.0495L59.8621 9.63482C59.9277 9.48155 60.1029 9.37207 60.2562 9.37207H61.7013C61.8765 9.37207 62.0298 9.48155 62.0955 9.63482L70.8101 28.6844H68.9489C68.7738 28.6844 68.6205 28.575 68.5548 28.4217L66.2995 23.517ZM65.555 21.8748L61.3291 12.4156C61.1758 12.0653 60.6722 12.0653 60.5189 12.4156L56.293 21.8748H65.555Z" fill="#304368" stroke="#304368" stroke-miterlimit="10"/>
<path d="M82.5246 15.0212C83.6851 15.6562 84.6047 16.532 85.2835 17.6487C85.9623 18.7654 86.2907 20.0354 86.2907 21.4367C86.2907 22.8381 85.9623 24.1081 85.2835 25.2248C84.6047 26.3634 83.6851 27.2392 82.5246 27.8961C81.3641 28.5311 80.0503 28.8595 78.5833 28.8595C77.379 28.8595 76.2623 28.6625 75.2551 28.2902C74.4011 27.9837 73.6566 27.5239 73.0217 26.9765C72.8246 26.8013 72.8246 26.5166 72.9998 26.3196L73.5472 25.7722C73.7004 25.6189 73.9632 25.597 74.1384 25.7503C75.3207 26.7356 76.7659 27.2173 78.4957 27.2173C79.5467 27.2173 80.4882 26.9984 81.3422 26.5604C82.1961 26.1225 82.8968 25.5094 83.4442 24.7212C83.9916 23.9329 84.2982 23.0571 84.3857 22.0717H77.0724C76.8316 22.0717 76.6345 21.8747 76.6345 21.6338V21.0426C76.6345 20.8018 76.8316 20.6047 77.0724 20.6047H84.3638C84.1668 19.1595 83.5099 17.9772 82.437 17.0575C81.3422 16.1379 80.0284 15.7 78.4957 15.7C76.7659 15.7 75.3207 16.1817 74.1384 17.167C73.9632 17.3203 73.7004 17.2984 73.5472 17.1451L73.0217 16.6196C72.8465 16.4444 72.8465 16.1379 73.0436 15.9627C73.6785 15.4153 74.423 14.9774 75.2551 14.6489C76.2623 14.2767 77.379 14.0796 78.5833 14.0796C80.0503 14.0577 81.3641 14.3862 82.5246 15.0212Z" fill="#304368" stroke="#304368" stroke-miterlimit="10"/>
<path d="M100.917 14.9777C102.012 15.5908 102.888 16.4666 103.501 17.5833C104.136 18.7 104.443 19.9919 104.443 21.4151C104.443 22.8603 104.136 24.1521 103.501 25.2688C102.866 26.3855 102.012 27.2614 100.917 27.8745C99.8226 28.4876 98.5964 28.7941 97.2169 28.7941C96.0346 28.7941 94.9835 28.5533 94.0201 28.0715C93.0786 27.5898 92.2903 26.8672 91.6991 25.9257V33.5675C91.6991 33.8083 91.5021 34.0054 91.2612 34.0054H90.1883C89.9474 34.0054 89.7504 33.8083 89.7504 33.5675V14.5835C89.7504 14.3427 89.9474 14.1456 90.1883 14.1456H91.1736C91.4145 14.1456 91.6115 14.3427 91.6115 14.5835V17.014C92.2027 16.0506 92.9691 15.328 93.9325 14.8025C94.896 14.277 95.9908 14.0361 97.195 14.0361C98.5745 14.058 99.8226 14.3646 100.917 14.9777ZM99.8445 26.3855C100.677 25.9257 101.311 25.2469 101.793 24.393C102.253 23.539 102.494 22.5537 102.494 21.437C102.494 20.3203 102.253 19.3569 101.793 18.5029C101.333 17.649 100.677 16.9921 99.8445 16.5104C99.0124 16.0287 98.0928 15.7878 97.0856 15.7878C96.0564 15.7878 95.1368 16.0287 94.3048 16.5104C93.4946 16.9921 92.8377 17.649 92.3779 18.5029C91.9181 19.3569 91.6772 20.3422 91.6772 21.437C91.6772 22.5318 91.9181 23.5171 92.3779 24.393C92.8377 25.2469 93.4946 25.9257 94.3048 26.3855C95.1149 26.8454 96.0564 27.0862 97.0856 27.0862C98.0928 27.0862 99.0124 26.8454 99.8445 26.3855Z" fill="#304368" stroke="#304368" stroke-miterlimit="10"/>
<path d="M111.318 27.8741C110.201 27.2391 109.303 26.3632 108.669 25.2465C108.034 24.1298 107.705 22.8599 107.705 21.4366C107.705 20.0134 108.034 18.7434 108.669 17.6267C109.303 16.51 110.201 15.6341 111.318 14.9992C112.435 14.3642 113.705 14.0576 115.106 14.0576C116.507 14.0576 117.755 14.3642 118.894 14.9992C120.011 15.6341 120.887 16.4881 121.522 17.6267C122.157 18.7434 122.463 20.0134 122.463 21.4366C122.463 22.8599 122.157 24.1298 121.522 25.2465C120.887 26.3632 120.011 27.2391 118.894 27.8741C117.777 28.5091 116.507 28.8156 115.106 28.8156C113.705 28.8156 112.435 28.5091 111.318 27.8741ZM117.865 26.3851C118.675 25.9253 119.332 25.2465 119.792 24.3926C120.252 23.5386 120.471 22.5533 120.471 21.4366C120.471 20.3199 120.23 19.3565 119.792 18.4806C119.332 17.6267 118.697 16.9479 117.865 16.4881C117.055 16.0283 116.113 15.7874 115.084 15.7874C114.055 15.7874 113.135 16.0283 112.303 16.4881C111.493 16.9479 110.836 17.6267 110.376 18.4806C109.917 19.3346 109.676 20.3199 109.676 21.4366C109.676 22.5533 109.917 23.5167 110.376 24.3926C110.836 25.2465 111.493 25.9253 112.303 26.3851C113.113 26.8449 114.055 27.0858 115.084 27.0858C116.135 27.0858 117.055 26.8449 117.865 26.3851Z" fill="#304368" stroke="#304368" stroke-miterlimit="10"/>
<path d="M146.089 9.80999V28.2246C146.089 28.4655 145.892 28.6626 145.651 28.6626H144.578C144.337 28.6626 144.14 28.4655 144.14 28.2246V13.2258L136.542 26.2102H135.579L128.003 13.2915V28.2246C128.003 28.4655 127.806 28.6626 127.565 28.6626H126.492C126.251 28.6626 126.054 28.4655 126.054 28.2246V9.80999C126.054 9.56914 126.251 9.37207 126.492 9.37207H127.477C127.631 9.37207 127.784 9.45965 127.85 9.59103L136.104 23.6921L144.272 9.59103C144.359 9.45965 144.491 9.37207 144.666 9.37207H145.651C145.892 9.37207 146.089 9.56914 146.089 9.80999Z" fill="#304368" stroke="#304368" stroke-miterlimit="10"/>
<path d="M151.256 14.1675H152.329C152.57 14.1675 152.767 14.3645 152.767 14.6054V25.6848L162.314 14.3208C162.402 14.2113 162.533 14.1675 162.664 14.1675H163.759C164 14.1675 164.197 14.3645 164.197 14.6054V28.2248C164.197 28.4656 164 28.6627 163.759 28.6627H162.686C162.445 28.6627 162.248 28.4656 162.248 28.2248V17.1453L152.724 28.5094C152.636 28.6189 152.505 28.6627 152.373 28.6627H151.256C151.016 28.6627 150.819 28.4656 150.819 28.2248V14.6054C150.819 14.3645 151.016 14.1675 151.256 14.1675Z" fill="#304368" stroke="#304368" stroke-miterlimit="10"/>
<path d="M179.875 14.9777C180.97 15.5908 181.846 16.4666 182.459 17.5833C183.094 18.7 183.4 19.9919 183.4 21.4151C183.4 22.8603 183.094 24.1521 182.459 25.2688C181.824 26.3855 180.97 27.2614 179.875 27.8745C178.78 28.4876 177.554 28.7941 176.174 28.7941C174.992 28.7941 173.941 28.5533 172.978 28.0715C172.036 27.5898 171.248 26.8672 170.657 25.9257V33.5675C170.657 33.8083 170.46 34.0054 170.219 34.0054H169.146C168.905 34.0054 168.708 33.8083 168.708 33.5675V14.5835C168.708 14.3427 168.905 14.1456 169.146 14.1456H170.131C170.372 14.1456 170.569 14.3427 170.569 14.5835V17.014C171.16 16.0506 171.927 15.328 172.89 14.8025C173.853 14.277 174.948 14.0361 176.153 14.0361C177.532 14.058 178.78 14.3646 179.875 14.9777ZM178.802 26.3855C179.634 25.9257 180.269 25.2469 180.751 24.393C181.211 23.539 181.451 22.5537 181.451 21.437C181.451 20.3203 181.211 19.3569 180.751 18.5029C180.291 17.649 179.634 16.9921 178.802 16.5104C177.97 16.0287 177.05 15.7878 176.043 15.7878C175.014 15.7878 174.094 16.0287 173.262 16.5104C172.452 16.9921 171.795 17.649 171.335 18.5029C170.876 19.3569 170.635 20.3422 170.635 21.437C170.635 22.5318 170.876 23.5171 171.335 24.393C171.795 25.2469 172.452 25.9257 173.262 26.3855C174.072 26.8454 175.014 27.0862 176.043 27.0862C177.05 27.0862 177.97 26.8454 178.802 26.3855Z" fill="#304368" stroke="#304368" stroke-miterlimit="10"/>
<path d="M18.8851 23.7344C21.4034 23.7344 23.4449 21.6929 23.4449 19.1746C23.4449 16.6562 21.4034 14.6147 18.8851 14.6147C16.3668 14.6147 14.3253 16.6562 14.3253 19.1746C14.3253 21.6929 16.3668 23.7344 18.8851 23.7344Z" fill="#3F74FD"/>
<path d="M27.6389 0.374405C31.8086 2.27636 35.3686 5.56819 37.5632 9.98169C42.6594 20.1498 38.5386 32.6588 28.3948 37.8282C18.0316 43.0951 5.40072 38.8523 0.304469 28.4404L0.0362451 27.6601C-0.110059 27.2699 0.206932 26.831 0.621459 26.831H3.18178C3.42562 26.831 3.62069 26.9529 3.74261 27.1724C8.08296 35.5605 18.4462 38.9011 26.9318 34.4876C34.9785 30.2936 38.3922 20.418 34.6371 12.1763C32.9302 8.46989 30.1017 5.66573 26.7611 3.95885C26.5416 3.86131 26.4197 3.64186 26.4197 3.39802V0.813316C26.4197 0.398788 26.8342 0.106181 27.2244 0.228101L27.6389 0.374405Z" fill="url(#paint0_linear)"/>
<path d="M26.8342 9.54257L24.8591 11.9322C20.8845 8.64036 14.9836 9.2012 11.7162 13.2002L9.32653 11.2251C9.10708 11.0544 9.08269 10.7374 9.27776 10.5179C13.7644 5.49483 21.3966 4.76331 26.7611 8.83544C26.9805 9.03051 27.0049 9.3475 26.8342 9.54257Z" fill="url(#paint1_linear)"/>
<path d="M15.9345 31.7322C9.37519 30.1716 5.108 23.8074 6.15651 17.1505C6.20528 16.8823 6.4735 16.6872 6.74173 16.736L9.78972 17.3456C8.78998 22.4175 12.0818 27.3187 17.1537 28.3184L16.5441 31.3664C16.4709 31.6346 16.2027 31.8053 15.9345 31.7322Z" fill="#2D72EA"/>
<path d="M23.4935 31.2446C29.809 28.8793 33.2471 22.0274 31.394 15.5413C31.3208 15.2731 31.0282 15.1268 30.76 15.1999L27.8095 16.1753C29.4189 21.0765 26.7854 26.3678 21.8842 27.9771L22.8596 30.9276C22.9571 31.1958 23.2497 31.3421 23.4935 31.2446Z" fill="#38F4C7"/>
</g>
<defs>
<linearGradient id="paint0_linear" x1="0.00891056" y1="20.1271" x2="39.7522" y2="20.1271" gradientUnits="userSpaceOnUse">
<stop stop-color="#3F4AFC"/>
<stop offset="0.0940344" stop-color="#3B55F7"/>
<stop offset="0.2591" stop-color="#3272E9"/>
<stop offset="0.4739" stop-color="#22A1D3"/>
<stop offset="0.6736" stop-color="#11D3BB"/>
<stop offset="0.7748" stop-color="#18D9BD"/>
<stop offset="0.9181" stop-color="#2AE8C3"/>
<stop offset="1" stop-color="#38F4C7"/>
</linearGradient>
<linearGradient id="paint1_linear" x1="13.0462" y1="5.93289" x2="23.0237" y2="14.1666" gradientUnits="userSpaceOnUse">
<stop offset="0.4569" stop-color="#11D3BB"/>
<stop offset="0.6252" stop-color="#18D9BD"/>
<stop offset="0.8638" stop-color="#2AE8C3"/>
<stop offset="1" stop-color="#38F4C7"/>
</linearGradient>
<clipPath id="clip0">
<rect width="200" height="40" fill="white"/>
</clipPath>
</defs>
</svg>
