<?xml version="1.0" encoding="utf-8"?>
<!-- Generator: Adobe Illustrator 23.0.5, SVG Export Plug-In . SVG Version: 6.00 Build 0)  -->
<svg version="1.1" id="Слой_1" xmlns="http://www.w3.org/2000/svg" xmlns:xlink="http://www.w3.org/1999/xlink" x="0px" y="0px"
	 viewBox="0 0 964 964" style="enable-background:new 0 0 964 964;" xml:space="preserve">
<style type="text/css">
	.st0{fill:#1C5875;}
	.st1{fill:#38A1BA;}
</style>
<g>
	<path class="st0" d="M180.6,666h-47.1l-9.1,26.3c-0.4,1.2-1.6,2-2.9,2h-15.4c-2.1,0-3.6-2.1-2.8-4.1l43.6-115.5
		c0.4-1.2,1.6-2,2.8-2h14.8c1.3,0,2.4,0.8,2.8,2l43.7,115.5c0.8,2-0.7,4.1-2.8,4.1h-15.5c-1.3,0-2.4-0.8-2.9-2L180.6,666z
		 M139.5,649h35.2l-17.6-50.4L139.5,649z"/>
	<path class="st0" d="M261,618.6c-4.7,0-8.7,1.5-12,4.4c-2.6,2.3-4.2,5.2-4.7,8.4c-0.2,1.5-1.5,2.5-3,2.5h-13.1
		c-1.8,0-3.2-1.6-3-3.4c0.5-4.3,2.1-8.4,4.6-12.2c3.2-4.9,7.7-8.8,13.3-11.6c5.6-2.9,11.6-4.3,18-4.3c12.2,0,22.1,4.2,29.5,12.6
		c7.4,8.4,11.1,19.6,11.1,33.6v2.1c0,8.6-1.7,16.4-5.1,23.5c-3.4,7-8.1,12.4-14.2,16.2c-6.1,3.8-13.2,5.7-21.3,5.7
		c-6.8,0-13.1-1.4-18.6-4.3c-5.6-2.9-9.9-6.9-12.9-12.1c-2.5-4.3-4-9-4.5-14.2c-0.2-1.8,1.2-3.3,3-3.3h13.1c1.5,0,2.8,1.1,3,2.6
		c0.5,4,2.1,7.4,4.8,10.1c3.3,3.3,7.3,5,12.1,5c5.7,0,10.3-2.1,13.8-6.4c3.5-4.3,5.6-10.2,6.3-17.8h-25.4c-1.7,0-3-1.4-3-3v-8
		c0-1.7,1.4-3,3-3H281c-0.8-7.3-2.9-13-6.4-17C271.1,620.6,266.5,618.6,261,618.6z"/>
	<path class="st0" d="M402.3,650c0,14-3.2,25.1-9.5,33.4c-6.3,8.3-14.9,12.5-25.5,12.5c-9.9,0-17.8-3.3-23.8-9.8V726
		c0,1.7-1.4,3-3,3h-14.2c-1.7,0-3-1.4-3-3V607c0-1.7,1.4-3,3-3H339c1.6,0,2.9,1.2,3,2.8l0.6,6.4c6-7.2,14.1-10.9,24.3-10.9
		c11,0,19.7,4.1,25.9,12.3c6.3,8.2,9.4,19.6,9.4,34.2V650z M382.1,648.3c0-9-1.8-16.2-5.4-21.5c-3.6-5.3-8.7-7.9-15.4-7.9
		c-8,0-13.8,3.2-17.5,9.6c-0.3,0.5-0.4,1-0.4,1.5v38.5c0,0.5,0.1,1,0.4,1.5c3.7,6.5,9.6,9.8,17.7,9.8c6.5,0,11.5-2.6,15.2-7.8
		C380.2,666.8,382.1,658.9,382.1,648.3z"/>
	<path class="st0" d="M419.7,648.3c0-8.9,1.8-16.8,5.3-23.9c3.5-7.1,8.4-12.6,14.8-16.4c6.3-3.8,13.6-5.7,21.9-5.7
		c12.2,0,22.1,3.9,29.7,11.8c7.6,7.8,11.7,18.3,12.3,31.2l0.1,4.8c0,8.9-1.7,16.9-5.1,23.9c-3.4,7-8.3,12.4-14.7,16.3
		c-6.4,3.8-13.7,5.8-22.1,5.8c-12.7,0-22.9-4.2-30.6-12.7c-7.7-8.5-11.5-19.8-11.5-33.9V648.3z M440,650c0,9.3,1.9,16.6,5.8,21.8
		c3.8,5.3,9.2,7.9,16,7.9s12.2-2.7,16-8c3.8-5.3,5.7-13.2,5.7-23.5c0-9.1-2-16.4-5.9-21.7c-3.9-5.3-9.3-8-16-8
		c-6.6,0-11.9,2.6-15.8,7.9C442,631.7,440,639.6,440,650z"/>
	<path class="st0" d="M555.1,574.7l34.3,91.2l34.2-91.2c0.4-1.2,1.6-2,2.8-2h22.2c1.7,0,3,1.4,3,3v115.5c0,1.7-1.4,3-3,3h-15
		c-1.7,0-3-1.4-3-3v-37l2.1-53.6l-35.2,91.7c-0.5,1.2-1.6,2-2.8,2h-10.9c-1.3,0-2.4-0.8-2.8-2l-35.1-91.6l2.1,53.5v37
		c0,1.7-1.4,3-3,3h-15c-1.7,0-3-1.4-3-3V575.8c0-1.7,1.4-3,3-3h22.2C553.5,572.7,554.6,573.5,555.1,574.7z"/>
	<path class="st0" d="M735.5,604h19.4c0.3,0,0.5,0.2,0.5,0.5v89.3c0,0.3-0.2,0.5-0.5,0.5h-19.2c-0.3,0-0.5-0.2-0.5-0.5V634l-35.3,60
		c-0.1,0.2-0.3,0.2-0.4,0.2h-19.4c-0.3,0-0.5-0.2-0.5-0.5v-89.3c0-0.3,0.2-0.5,0.5-0.5h19.2c0.3,0,0.5,0.2,0.5,0.5v59.8l35.3-60
		C735.1,604.1,735.3,604,735.5,604z"/>
	<path class="st0" d="M860.2,650c0,14-3.2,25.1-9.5,33.4c-6.3,8.3-14.9,12.5-25.5,12.5c-9.9,0-17.8-3.3-23.8-9.8V726
		c0,1.7-1.4,3-3,3h-14.2c-1.7,0-3-1.4-3-3V607c0-1.7,1.4-3,3-3H797c1.6,0,2.9,1.2,3,2.8l0.6,6.4c6-7.2,14.1-10.9,24.3-10.9
		c11,0,19.7,4.1,25.9,12.3c6.3,8.2,9.4,19.6,9.4,34.2V650z M840,648.3c0-9-1.8-16.2-5.4-21.5c-3.6-5.3-8.7-7.9-15.4-7.9
		c-8,0-13.8,3.2-17.5,9.6c-0.3,0.5-0.4,1-0.4,1.5v38.5c0,0.5,0.1,1,0.4,1.5c3.7,6.5,9.6,9.8,17.7,9.8c6.5,0,11.5-2.6,15.2-7.8
		C838.2,666.8,840,658.9,840,648.3z"/>
</g>
<g>
	<g>
		<path class="st1" d="M104.1,756.1h8.9c5,0,8.5,1.7,8.5,5.8c0,2.6-1.5,4.2-3.8,4.9v0.2c2.6,0.6,4.8,2.2,4.8,5.5
			c0,4.6-3.8,6.6-9.1,6.6h-9.2V756.1z M112.3,765.8c3.9,0,5.4-1.3,5.4-3.5c0-2.2-1.5-3.4-5.1-3.4H108v6.9H112.3z M112.9,776.4
			c3.8,0,5.7-1.5,5.7-4c0-2.3-2-3.8-5.9-3.8H108v7.8H112.9z"/>
		<path class="st1" d="M127.5,767.7c0-7.5,5.1-12.1,10.4-12.1c5.9,0,9.2,4.2,9.2,10.8c0,0.8-0.1,1.6-0.2,2.2h-15.5
			c0.3,4.9,3.3,8.1,7.7,8.1c2.2,0,4-0.7,5.7-1.8l1.4,2.6c-2,1.3-4.5,2.4-7.6,2.4C132.4,779.8,127.5,775.3,127.5,767.7z M143.6,765.8
			c0-4.6-2.1-7.1-5.7-7.1c-3.2,0-6.1,2.6-6.6,7.1H143.6z"/>
		<path class="st1" d="M153.7,756.1h3.9v9.4h11.1v-9.4h3.9v23.1h-3.9v-10.2h-11.1v10.2h-3.9V756.1z"/>
		<path class="st1" d="M186.3,759.3h-7.7v-3.2H198v3.2h-7.7v19.9h-3.9V759.3z"/>
		<path class="st1" d="M204,756.1h3.8v9.6c0,2.4-0.2,5.5-0.4,8.5h0.2c0.9-1.4,2.2-3.5,3.1-4.9l8.7-13.2h3.6v23.1h-3.8v-9.6
			c0-2.4,0.2-5.5,0.4-8.5h-0.2c-0.9,1.4-2.2,3.5-3,4.9l-8.7,13.2H204V756.1z"/>
		<path class="st1" d="M228.4,779.4l0.7-3.6c0.3,0.1,0.6,0.2,1.1,0.2c1.6,0,2.7-1.5,3.1-4.9c0.6-5,1.2-10,1.8-15h14.2v23.1h-3.9
			v-19.9h-7.2c-0.5,4.2-1,8.5-1.5,12.8c-0.7,5.1-2.7,7.7-6.1,7.7C229.6,779.8,229,779.6,228.4,779.4z"/>
		<path class="st1" d="M263.7,768.1l3.2,1.2l-7,10h-4.4L263.7,768.1z M270.7,770.1h-4.3c-4.5,0-9-2-9-7.1c0-5.1,3.9-6.8,9.1-6.8h8.2
			v23.1h-3.9V770.1z M270.7,767.2v-8.1h-3.6c-3.6,0-5.8,1.2-5.8,3.9c0,2.7,2.2,4.2,5.8,4.2H270.7z"/>
		<path class="st1" d="M283.3,756.1h3.9V776h10.3v-19.9h3.9v23.1h-18.1V756.1z M301,779.2h-1.8V776h5.6v2.5l-0.4,8.9H301V779.2z"/>
		<path class="st1" d="M310.5,756.1h3.8v9.6c0,2.4-0.2,5.5-0.4,8.5h0.2c0.9-1.4,2.2-3.5,3.1-4.9l8.7-13.2h3.6v23.1h-3.8v-9.6
			c0-2.4,0.2-5.5,0.4-8.5h-0.2c-0.9,1.4-2.2,3.5-3,4.9l-8.7,13.2h-3.6V756.1z"/>
		<path class="st1" d="M344,768.1l3.2,1.2l-7,10h-4.4L344,768.1z M351,770.1h-4.3c-4.5,0-9-2-9-7.1c0-5.1,3.9-6.8,9.1-6.8h8.2v23.1
			H351V770.1z M351,767.2v-8.1h-3.6c-3.6,0-5.8,1.2-5.8,3.9c0,2.7,2.2,4.2,5.8,4.2H351z"/>
		<path class="st1" d="M374.1,756.1h3.8v9.6c0,2.4-0.2,5.5-0.4,8.5h0.2c0.9-1.4,2.2-3.5,3.1-4.9l8.7-13.2h3.6v23.1h-3.8v-9.6
			c0-2.4,0.2-5.5,0.4-8.5h-0.2c-0.9,1.4-2.2,3.5-3,4.9l-8.7,13.2h-3.6V756.1z"/>
		<path class="st1" d="M412.3,756.1h3.9v9.5h6.5l8.8,13.6h-4.3l-6.4-10.4h-4.5v10.4h-3.9V756.1z M419.9,767.3l3-6.8
			c1.8-4,3.6-4.9,6.1-4.9c0.5,0,1,0.1,1.4,0.3l-0.7,3.7c-0.3-0.1-0.4-0.1-0.8-0.1c-1.2,0-2.2,0.4-3.3,3.2l-2.3,5.4L419.9,767.3z"/>
		<path class="st1" d="M435.1,767.7c0-7.7,5-12.1,10.7-12.1s10.7,4.4,10.7,12.1c0,7.6-5,12.1-10.7,12.1S435.1,775.3,435.1,767.7z
			 M452.5,767.7c0-5.3-2.7-8.9-6.7-8.9c-4,0-6.7,3.6-6.7,8.9s2.7,8.8,6.7,8.8C449.8,776.5,452.5,773,452.5,767.7z"/>
		<path class="st1" d="M463.5,756.1h3.9v9.4h11.1v-9.4h3.9v23.1h-3.9v-10.2h-11.1v10.2h-3.9V756.1z"/>
		<path class="st1" d="M491.9,787.3h-3.4l-0.4-8.9V776h23.3v2.5l-0.4,8.9h-3.4v-8.2h-15.8V787.3z M504.2,759.3h-7.4l-0.9,7.8
			c-1,8.5-3.3,10.7-5.8,11.2l-0.9-2.3c1.3-0.7,2.3-2.2,3.2-9.7l1.2-10.2h14.4V778h-3.9V759.3z"/>
		<path class="st1" d="M517.3,756.1h3.8v9.6c0,2.4-0.2,5.5-0.4,8.5h0.2c0.9-1.4,2.2-3.5,3.1-4.9l8.7-13.2h3.6v23.1h-3.8v-9.6
			c0-2.4,0.2-5.5,0.4-8.5h-0.2c-0.9,1.4-2.2,3.5-3,4.9l-8.7,13.2h-3.6V756.1z"/>
		<path class="st1" d="M545.1,756.1h3.9V776h10.3v-19.9h3.9v23.1h-18.1V756.1z M562.8,779.2H561V776h5.6v2.5l-0.4,8.9h-3.4V779.2z"
			/>
		<path class="st1" d="M572.3,756.1h3.8v9.6c0,2.4-0.2,5.5-0.4,8.5h0.2c0.9-1.4,2.2-3.5,3.1-4.9l8.7-13.2h3.6v23.1h-3.8v-9.6
			c0-2.4,0.2-5.5,0.4-8.5h-0.2c-0.9,1.4-2.2,3.5-3,4.9l-8.7,13.2h-3.6V756.1z"/>
		<path class="st1" d="M598.3,767.7c0-7.7,5-12.1,10.7-12.1s10.7,4.4,10.7,12.1c0,7.6-5,12.1-10.7,12.1S598.3,775.3,598.3,767.7z
			 M615.7,767.7c0-5.3-2.7-8.9-6.7-8.9c-4,0-6.7,3.6-6.7,8.9s2.7,8.8,6.7,8.8C613,776.5,615.7,773,615.7,767.7z"/>
		<path class="st1" d="M626.7,756.1h3.9v9.4h11.1v-9.4h3.9v23.1h-3.9v-10.2h-11.1v10.2h-3.9V756.1z"/>
		<path class="st1" d="M654.3,756.1h3.8v9.6c0,2.4-0.2,5.5-0.4,8.5h0.2c0.9-1.4,2.2-3.5,3.1-4.9l8.7-13.2h3.6v23.1h-3.8v-9.6
			c0-2.4,0.2-5.5,0.4-8.5h-0.2c-0.9,1.4-2.2,3.5-3,4.9l-8.7,13.2h-3.6V756.1z"/>
		<path class="st1" d="M682.1,756.1h3.2l0.3,2.7h0.1c2.1-1.7,4.7-3.2,7.4-3.2c6,0,9.1,4.6,9.1,11.8c0,7.9-4.7,12.5-10,12.5
			c-2.1,0-4.3-1-6.4-2.7l0.1,4v7.8h-3.9V756.1z M698.2,767.3c0-5.1-1.7-8.5-6.1-8.5c-2,0-3.9,1.1-6.2,3.1v12.1
			c2.1,1.8,4.1,2.4,5.6,2.4C695.4,776.5,698.2,773,698.2,767.3z"/>
		<path class="st1" d="M707.7,767.7c0-7.7,5-12.1,10.7-12.1S729,760,729,767.7c0,7.6-5,12.1-10.7,12.1S707.7,775.3,707.7,767.7z
			 M725,767.7c0-5.3-2.7-8.9-6.7-8.9c-4,0-6.7,3.6-6.7,8.9s2.7,8.8,6.7,8.8C722.3,776.5,725,773,725,767.7z"/>
		<path class="st1" d="M736,756.1h8.9c5,0,8.5,1.7,8.5,5.8c0,2.6-1.5,4.2-3.8,4.9v0.2c2.6,0.6,4.8,2.2,4.8,5.5
			c0,4.6-3.8,6.6-9.1,6.6H736V756.1z M744.2,765.8c3.9,0,5.4-1.3,5.4-3.5c0-2.2-1.5-3.4-5.1-3.4h-4.6v6.9H744.2z M744.8,776.4
			c3.8,0,5.7-1.5,5.7-4c0-2.3-2-3.8-5.9-3.8h-4.7v7.8H744.8z"/>
		<path class="st1" d="M759.7,773.2c0-5,4.3-7.5,14.2-8.6c0-3-1-5.8-4.8-5.8c-2.7,0-5.1,1.3-6.9,2.5l-1.5-2.7c2.1-1.4,5.4-3,9.1-3
			c5.6,0,8,3.7,8,9.5v14.2h-3.2l-0.3-2.8h-0.1c-2.2,1.8-4.8,3.3-7.6,3.3C762.6,779.8,759.7,777.4,759.7,773.2z M773.8,773.6v-6.4
			c-7.7,0.9-10.3,2.8-10.3,5.8c0,2.6,1.8,3.7,4,3.7C769.8,776.6,771.6,775.5,773.8,773.6z"/>
		<path class="st1" d="M786,756.1h3.9v9.4H801v-9.4h3.9v23.1H801v-10.2h-11.1v10.2H786V756.1z"/>
		<path class="st1" d="M813.6,756.1h3.8v9.6c0,2.4-0.2,5.5-0.4,8.5h0.2c0.9-1.4,2.2-3.5,3.1-4.9l8.7-13.2h3.6v23.1h-3.8v-9.6
			c0-2.4,0.2-5.5,0.4-8.5H829c-0.9,1.4-2.2,3.5-3,4.9l-8.7,13.2h-3.6V756.1z"/>
		<path class="st1" d="M839.6,767.7c0-7.5,5.1-12.1,10.4-12.1c5.9,0,9.2,4.2,9.2,10.8c0,0.8-0.1,1.6-0.2,2.2h-15.5
			c0.3,4.9,3.3,8.1,7.7,8.1c2.2,0,4-0.7,5.7-1.8l1.4,2.6c-2,1.3-4.5,2.4-7.6,2.4C844.5,779.8,839.6,775.3,839.6,767.7z M855.7,765.8
			c0-4.6-2.1-7.1-5.7-7.1c-3.2,0-6.1,2.6-6.6,7.1H855.7z"/>
	</g>
</g>
<g>
	<path class="st1" d="M533,282.9c-0.4,0.5-0.8,1-1.2,1.5C532.2,283.9,532.6,283.3,533,282.9z"/>
	<path class="st1" d="M536.5,278.7c-1.2,1.3-2.3,2.7-3.5,4.2C534.2,281.4,535.4,280,536.5,278.7z"/>
	<path class="st1" d="M531.8,284.4c-1.7,2.2-3.4,4.5-5.1,7C528.4,288.8,530.1,286.6,531.8,284.4z"/>
	<path class="st1" d="M431.1,386.2c-12.6,10.4-36.5,25.8-57.6,23.6c-22.3-2.3-36.5-20.6-42.2-28.7c-18-25.4-17.5-54.2-16-69.5
		c1.2-12.3,8.8-41.1,33.4-57.9c1.7-1.1,9.6-4,14.3-2.1c10,4,12.8,14.1,18.8,21.4c4.7,5.8,14.8,13.3,32.1,18.6
		c-19-6.1-27.1-14.9-31.4-22.4c-5-8.8-5.7-14.5-14.3-21.5c-10.2-8.2-22.8-0.5-24.8,0.7c-27.3,16.6-35.3,50.6-37.3,64.6
		c-1,7.1-2.2,49.2,17.9,77.6c6.4,9,22.3,29.5,47.1,32c23.5,2.4,47.9-17,58.5-25.2c13.2-10.1,21-19.7,26.6-27.5l-5.4-2.4
		C448.6,369.8,443.3,376.1,431.1,386.2z"/>
	<path class="st1" d="M477.5,389.7c-0.9-2.6-1.8-5.3-3-8.1C475.6,384.3,476.6,387,477.5,389.7z"/>
	<path class="st1" d="M479.6,396.7c-0.4-1.7-0.9-3.4-1.5-5.3C478.7,393.3,479.1,395,479.6,396.7z"/>
	<path class="st1" d="M477.2,366.6c23.8,0,43.3-18.6,44.7-42.1c3.7,0.7,13.8,2.4,28.1,7c15.5,5,41.3,17,50.9,35.9
		c10.1,20,2.2,41.8-1.5,51c-11.7,28.8-36.4,43.8-50,50.8c-11,5.6-39.5,14.6-66.8,2.9c-1.9-0.8-8.5-6-9.4-10.9c-2-10.6,5-18.3,8-27.3
		c2.4-7.1,3.3-19.6-1.5-37.1c5.1,19.3,2,30.9-2,38.5c-4.7,8.9-9.2,12.6-10.4,23.6c-1.5,13,11.8,19.5,13.9,20.5
		c28.7,14.2,61.6,2.6,74.5-3.2c6.5-2.9,42.7-24.6,55.8-56.7c4.2-10.3,12.9-34.6,1.7-56.9c-10.6-21.1-40.1-31.2-52.7-35.8
		c-15.2-5.5-28.8-7.1-38.4-7.7c-1.4-23.5-20.9-42.2-44.8-42.2c-8.9,0-17.1,2.6-24.1,7c-1.3-3.2-5.7-12.7-9.9-27.6
		c-4.4-15.7-8.7-43.8,1.7-62.2c11.1-19.5,33.6-25,43.3-27c30.5-6.2,56.6,6,70,13.5c10.8,6.1,34,24.7,39.4,54
		c0.4,2-0.3,10.4-3.9,13.9c-7.7,7.5-18,6-27.2,8.5c-7.2,1.9-18.1,8.1-30,21.8c13.3-14.9,24.6-18.8,33.2-19.6c10-1,15.6,0.7,25.4-4.4
		c11.6-6,9.7-20.7,9.4-22.9c-4.1-31.7-32-52.7-43.9-60.3c-6.1-3.8-44.1-22-78.2-15.1c-10.9,2.2-36,8.4-48.3,30.1
		c-11.7,20.5-3.8,50.7-0.6,63.7c3.9,16,10.2,28.4,15.1,36.8c0,0,31.9-11.2,49.9,11.5c18,22.7,6,57.5-14.5,65.5
		C463.5,372,477.2,366.6,477.2,366.6z"/>
	<path class="st1" d="M478.1,391.5c-0.2-0.6-0.4-1.2-0.6-1.8C477.7,390.3,477.9,390.9,478.1,391.5z"/>
	<path class="st0" d="M517.2,297.4c15.7-23,30.7-32.1,39.9-34.5c9.2-2.5,19.5-0.9,27.2-8.5c3.6-3.5,4.3-11.9,3.9-13.9
		c-5.3-29.2-28.6-47.9-39.4-54c-13.4-7.5-39.5-19.7-70-13.5c-9.7,2-32.2,7.5-43.3,27c-10.5,18.4-6.2,46.6-1.7,62.2
		c4.3,15.3,8.9,25,10,27.9l0,0l-4.4,3.2c-4.9-8.4-11.3-20.9-15.3-37c-3.2-13.1-11.1-43.2,0.6-63.7c12.4-21.7,37.5-27.9,48.3-30.1
		c34-6.9,72.1,11.2,78.2,15.1C563,185,590.9,206,595,237.7c0.3,2.2,2.2,17-9.4,22.9c-9.9,5.1-15.4,3.4-25.4,4.4
		C549.6,266.1,534.7,271.7,517.2,297.4z"/>
	<path class="st0" d="M419.9,295.7c-27.3-5-41.7-15.1-47.7-22.5c-6-7.4-8.7-17.4-18.8-21.4c-4.7-1.9-12.6,0.9-14.3,2.1
		c-24.6,16.7-32.3,45.5-33.4,57.9c-1.5,15.3-2,44.1,16,69.5c5.7,8.1,19.9,26.4,42.2,28.7c21.1,2.1,45.1-13.2,57.6-23.6
		c12.2-10.2,19.3-18.2,21.5-20.4l0,0l4.7,2.8c-5.7,7.9-14.5,18.8-27.7,29c-10.7,8.2-35,27.6-58.5,25.2c-24.9-2.5-40.7-23-47.1-32
		c-20.1-28.3-18.9-70.5-17.9-77.6c2.1-14,10-48,37.3-64.6c1.9-1.2,14.6-8.9,24.8-0.7c8.6,7,9.3,12.7,14.3,21.5
		C378.2,278.7,389.4,290.1,419.9,295.7z"/>
	<path class="st0" d="M511.7,330.3L511.7,330.3c3,0.7,13.6,2.3,28.8,7.2c15.5,5,41.3,17,50.9,35.9c10.1,20,2.2,41.8-1.5,51
		c-11.7,28.8-36.4,43.8-50,50.8c-11,5.6-39.5,14.6-66.8,2.9c-1.9-0.8-8.5-6-9.4-10.9c-2-10.6,5-18.3,8-27.3c3-9,3.8-26.5-6.7-52.3
		c11.6,28.8,8,44.3,3.1,53.7c-4.7,8.9-9.2,12.6-10.4,23.6c-1.5,13,11.8,19.5,13.9,20.5c28.7,14.2,61.6,2.6,74.5-3.2
		c6.5-2.9,42.7-24.6,55.8-56.7c4.2-10.3,12.9-34.6,1.7-56.9c-10.6-21.1-40.1-31.2-52.7-35.8c-15.6-5.7-29.6-7.2-39.3-7.8
		L511.7,330.3z"/>
	<path class="st0" d="M468.9,279.6c-26.5,0-48,21.5-48,48c0,26.5,21.5,48,48,48c26.5,0,48-21.5,48-48
		C517,301.1,495.5,279.6,468.9,279.6z M464.4,363.1c-20.2,0-36.5-16.4-36.5-36.5c0-20.2,16.4-36.5,36.5-36.5
		c20.2,0,36.5,16.4,36.5,36.5C501,346.7,484.6,363.1,464.4,363.1z"/>
</g>
</svg>
