<svg width="70" height="70" fill="none" xmlns="http://www.w3.org/2000/svg"><path d="M8.75 35H35v4.375H8.75V35zM4.375 24.063H26.25v4.375H4.375v-4.375z" fill="#67D6C7"/><path d="M65.448 36.326l-6.563-15.313a2.186 2.186 0 00-2.01-1.326h-6.563v-4.375a2.187 2.187 0 00-2.187-2.187h-35V17.5h32.813v27.466a8.733 8.733 0 00-4.065 5.346H28.127a8.75 8.75 0 100 4.376h13.746a8.706 8.706 0 0016.879 0h4.685a2.188 2.188 0 002.188-2.188V37.187c0-.296-.06-.59-.177-.861zm-45.76 20.549a4.375 4.375 0 110-8.75 4.375 4.375 0 010 8.75zm30.625-32.813h5.118L60.121 35h-9.809V24.062zm0 32.813a4.375 4.375 0 110-8.75 4.375 4.375 0 010 8.75zm10.937-6.563h-2.498a8.739 8.739 0 00-8.44-6.562v-4.375H61.25v10.938z" fill="#67D6C7"/></svg>